<svg width="179" height="68" viewBox="0 0 179 68" fill="none" xmlns="http://www.w3.org/2000/svg">
<g id="Layer_1" clip-path="url(#clip0_505_7577)">
<path id="Vector" d="M12.4619 60.5559H15.4934C17.2654 60.5559 18.4138 61.4728 18.4138 63.0225V63.0441C18.4138 64.7173 17.1357 65.594 15.3915 65.594H14.416V67.6099H12.4619V60.559V60.5559ZM15.3545 64.0628C16.0398 64.0628 16.472 63.6893 16.472 63.1367V63.1151C16.472 62.51 16.0398 62.1982 15.3452 62.1982H14.4191V64.0628H15.3545Z" fill="white"/>
<path id="Vector_2" d="M18.9941 64.5166V60.559H20.9699V64.4765C20.9699 65.4952 21.4823 65.9768 22.2695 65.9768C23.0567 65.9768 23.5784 65.5137 23.5784 64.5259V60.5559H25.5542V64.4641C25.5542 66.73 24.2545 67.7395 22.251 67.7395C20.2475 67.7395 18.9972 66.7208 18.9972 64.5166H18.9941Z" fill="white"/>
<path id="Vector_3" d="M26.542 60.5559H28.4961V65.8934H31.9104V67.6068H26.542V60.5559Z" fill="white"/>
<path id="Vector_4" d="M32.0555 66.5602L33.1421 65.2605C33.846 65.8131 34.6116 66.1064 35.4297 66.1064C35.9637 66.1064 36.2446 65.9243 36.2446 65.6217V65.6001C36.2446 65.2976 36.0131 65.1463 35.0469 64.9148C33.5465 64.5721 32.3858 64.1492 32.3858 62.7075V62.689C32.3858 61.3801 33.4231 60.4324 35.1148 60.4324C36.3126 60.4324 37.251 60.7534 38.0166 61.3678L37.038 62.7477C36.3928 62.2846 35.689 62.0531 35.0623 62.0531C34.59 62.0531 34.3584 62.2445 34.3584 62.5069V62.5254C34.3584 62.8465 34.5992 62.9885 35.5871 63.2107C37.1985 63.5627 38.2049 64.0875 38.2049 65.4056V65.4242C38.2049 66.8658 37.0658 67.7209 35.3525 67.7209C34.1022 67.7209 32.926 67.3289 32.0493 66.5509L32.0555 66.5602Z" fill="white"/>
<path id="Vector_5" d="M38.989 60.5558H44.66V62.2074H40.9216V63.2848H44.305V64.8252H40.9216V65.9428H44.7094V67.6036H38.986V60.5527L38.989 60.5558Z" fill="white"/>
<path id="Vector_6" d="M48.1206 60.5559H48.6238V67.6068H48.1206V60.5559Z" fill="white"/>
<path id="Vector_7" d="M50.3186 60.5559H50.8033L54.8628 66.6313V60.5559H55.3474V67.6068H54.943L50.8033 61.3925V67.6068H50.3186V60.5559Z" fill="white"/>
<path id="Vector_8" d="M58.5395 61.019H56.4835V60.5559H61.1079V61.019H59.0427V67.6068H58.5395V61.019Z" fill="white"/>
<path id="Vector_9" d="M62.241 60.5559H64.5686C65.3527 60.5559 65.9979 60.806 66.3931 61.2011C66.7357 61.5438 66.9364 62.0377 66.9364 62.581V62.5995C66.9364 63.7387 66.1801 64.4117 65.1336 64.6031L67.1587 67.6068H66.5443L64.5902 64.7049H62.7472V67.6068H62.2441V60.5559H62.241ZM64.4143 64.2542C65.7139 64.2542 66.4394 63.6183 66.4394 62.6212V62.6026C66.4394 61.5962 65.7232 61.0221 64.5347 61.0221H62.7411V64.2542H64.4143Z" fill="white"/>
<path id="Vector_10" d="M70.5019 60.5066H71.0051L73.7557 67.6099H73.2123L72.4653 65.6342H69.0108L68.2668 67.6099H67.7544L70.505 60.5066H70.5019ZM72.2862 65.1804L70.7458 61.1209L69.193 65.1804H72.2862Z" fill="white"/>
<path id="Vector_11" d="M73.5396 60.5559H74.0829L76.3797 66.9739L78.6857 60.5559H79.2105L76.6019 67.6562H76.1389L73.5396 60.5559Z" fill="white"/>
<path id="Vector_12" d="M81.7295 60.5066H82.2327L84.9833 67.6099H84.44L83.6929 65.6342H80.2385L79.4945 67.6099H78.9821L81.7326 60.5066H81.7295ZM83.5139 65.1804L81.9734 61.1209L80.4206 65.1804H83.5139Z" fill="white"/>
<path id="Vector_13" d="M85.5421 66.733L85.8755 66.341C86.5115 66.9368 87.1258 67.2486 87.95 67.2486C88.8978 67.2486 89.5522 66.6559 89.5522 65.8903V65.8687C89.5522 65.2049 89.2312 64.7697 87.8512 64.2881C86.3108 63.7355 85.8261 63.1798 85.8261 62.263V62.2414C85.8261 61.2442 86.6812 60.457 87.8698 60.457C88.6755 60.457 89.3114 60.6978 89.9258 61.2226L89.614 61.6239C89.0583 61.13 88.4872 60.9201 87.8512 60.9201C86.9251 60.9201 86.3293 61.4943 86.3293 62.2012V62.2197C86.3293 62.9051 86.6627 63.328 88.0828 63.8219C89.5924 64.3745 90.0461 64.9611 90.0461 65.8378V65.8594C90.0461 66.9275 89.1602 67.7116 87.9408 67.7116C87.0239 67.7116 86.2799 67.4091 85.5421 66.733Z" fill="white"/>
<path id="Vector_14" d="M91.0557 64.1121V64.0627C91.0557 61.9388 92.3738 60.457 94.1088 60.457C95.0565 60.457 95.6708 60.8213 96.2142 61.3122L95.8931 61.6949C95.4208 61.2411 94.8651 60.9201 94.0902 60.9201C92.6702 60.9201 91.5712 62.2198 91.5712 64.0535V64.0936C91.5712 65.9458 92.6702 67.2455 94.0902 67.2455C94.8466 67.2455 95.4084 66.943 95.9425 66.4213L96.2543 66.7732C95.6801 67.3165 95.0164 67.7086 94.0686 67.7086C92.3553 67.7086 91.0557 66.2669 91.0557 64.1121Z" fill="white"/>
<path id="Vector_15" d="M97.2514 65.0199V60.5591H97.7453V64.9921C97.7453 66.443 98.5016 67.258 99.7396 67.258C100.977 67.258 101.703 66.5017 101.703 65.023V60.5622H102.206V64.9859C102.206 66.7487 101.2 67.7242 99.7179 67.7242C98.2362 67.7242 97.2483 66.7487 97.2483 65.023L97.2514 65.0199Z" fill="white"/>
<path id="Vector_16" d="M103.743 60.5559H104.247V67.1437H107.661V67.6068H103.743V60.5559Z" fill="white"/>
<path id="Vector_17" d="M111.02 60.5066H111.523L114.273 67.6099H113.73L112.983 65.6342H109.529L108.785 67.6099H108.272L111.023 60.5066H111.02ZM112.801 65.1804L111.26 61.1209L109.708 65.1804H112.801Z" fill="white"/>
<path id="Vector_18" d="M115.394 60.5559H117.722C118.506 60.5559 119.151 60.806 119.546 61.2011C119.889 61.5438 120.089 62.0377 120.089 62.581V62.5995C120.089 63.7387 119.333 64.4117 118.287 64.6031L120.312 67.6068H119.697L117.743 64.7049H115.9V67.6068H115.397V60.5559H115.394ZM117.57 64.2542C118.87 64.2542 119.596 63.6183 119.596 62.6212V62.6026C119.596 61.5962 118.879 61.0221 117.691 61.0221H115.897V64.2542H117.57Z" fill="white"/>
<path id="Vector_19" d="M123.689 60.5559H124.192V67.1437H127.606V67.6068H123.689V60.5559Z" fill="white"/>
<path id="Vector_20" d="M128.798 60.5559H129.301V67.6068H128.798V60.5559Z" fill="white"/>
<path id="Vector_21" d="M132.567 61.019H130.511V60.5559H135.136V61.019H133.071V67.6068H132.567V61.019Z" fill="white"/>
<path id="Vector_22" d="M136.266 60.5559H136.769V63.8282H140.566V60.5559H141.069V67.6068H140.566V64.2913H136.769V67.6068H136.266V60.5559Z" fill="white"/>
<path id="Vector_23" d="M142.424 64.1215V64.0505C142.424 61.9945 143.635 60.4448 145.407 60.4448C147.179 60.4448 148.367 61.9853 148.367 64.0413V64.1123C148.367 66.1682 147.169 67.718 145.394 67.718C143.619 67.718 142.421 66.1775 142.421 64.1215H142.424ZM147.855 64.1215V64.0505C147.855 62.2384 146.808 60.9079 145.397 60.9079C143.987 60.9079 142.94 62.2261 142.94 64.0413V64.1123C142.94 65.9244 143.987 67.2549 145.41 67.2549C146.833 67.2549 147.858 65.9367 147.858 64.1215H147.855Z" fill="white"/>
<path id="Vector_24" d="M150.849 61.019H148.793V60.5559H153.418V61.019H151.352V67.6068H150.849V61.019Z" fill="white"/>
<path id="Vector_25" d="M154.547 60.5559H156.875C157.659 60.5559 158.304 60.806 158.699 61.2011C159.042 61.5438 159.243 62.0377 159.243 62.581V62.5995C159.243 63.7387 158.486 64.4117 157.44 64.6031L159.465 67.6068H158.851L156.897 64.7049H155.054V67.6068H154.55V60.5559H154.547ZM156.724 64.2542C158.023 64.2542 158.749 63.6183 158.749 62.6212V62.6026C158.749 61.5962 158.033 61.0221 156.844 61.0221H155.051V64.2542H156.724Z" fill="white"/>
<path id="Vector_26" d="M160.684 60.5559H161.188V67.6068H160.684V60.5559Z" fill="white"/>
<path id="Vector_27" d="M162.882 60.5559H164.926C166.386 60.5559 167.365 61.3709 167.365 62.723V62.7416C167.365 64.1832 166.257 64.9889 164.827 64.9889H163.386V67.6099H162.882V60.559V60.5559ZM164.858 64.5351C166.087 64.5351 166.874 63.8498 166.874 62.7632V62.7446C166.874 61.6271 166.078 61.0221 164.898 61.0221H163.389V64.5382H164.858V64.5351Z" fill="white"/>
<path id="Vector_28" d="M168.044 66.733L168.377 66.341C169.013 66.9368 169.628 67.2486 170.452 67.2486C171.4 67.2486 172.054 66.6559 172.054 65.8903V65.8687C172.054 65.2049 171.733 64.7697 170.353 64.2881C168.813 63.7355 168.328 63.1798 168.328 62.263V62.2414C168.328 61.2442 169.183 60.457 170.372 60.457C171.177 60.457 171.813 60.6978 172.428 61.2226L172.116 61.6239C171.56 61.13 170.989 60.9201 170.353 60.9201C169.427 60.9201 168.831 61.4943 168.831 62.2012V62.2197C168.831 62.9051 169.165 63.328 170.585 63.8219C172.094 64.3745 172.548 64.9611 172.548 65.8378V65.8594C172.548 66.9275 171.662 67.7116 170.443 67.7116C169.526 67.7116 168.782 67.4091 168.044 66.733Z" fill="white"/>
<path id="Vector_29" d="M175.441 64.739L172.891 60.5591H173.483L175.7 64.2543L177.917 60.5591H178.491L175.941 64.7297V67.6099H175.438V64.739H175.441Z" fill="white"/>
<path id="Vector_30" d="M79.4359 7.98315H85.1964C88.3205 7.98315 91.139 9.85392 92.3553 12.7311L107.741 49.1276H95.6029L92.6856 41.7742H76.8706L73.9533 49.1276H62.1051L79.439 7.98315H79.4359ZM89.3547 32.9606L84.8012 21.4057L80.1922 32.9606H89.3547Z" fill="white"/>
<path id="Vector_31" d="M100.329 8.27319H112.934L122.213 34.1274L131.552 8.27319H143.925L127.35 49.4177H122.102C118.926 49.4177 116.07 47.4851 114.888 44.5401L100.329 8.27319Z" fill="white"/>
<path id="Vector_32" d="M143.341 43.0584L149.645 35.529C153.729 38.7396 158.165 40.4313 162.895 40.4313C165.988 40.4313 167.621 39.3817 167.621 37.6313V37.514C167.621 35.7636 166.278 34.8869 160.675 33.544C151.979 31.559 145.268 29.1079 145.268 20.7636V20.6462C145.268 13.0582 151.278 7.57251 161.083 7.57251C168.029 7.57251 173.456 9.44019 177.892 12.9996L172.23 20.9951C168.495 18.3093 164.411 16.9665 160.789 16.9665C158.045 16.9665 156.705 18.0747 156.705 19.5936V19.7109C156.705 21.5785 158.107 22.3966 163.824 23.6808C173.162 25.7245 178.997 28.7591 178.997 36.4027V36.52C178.997 44.8643 172.403 49.8252 162.481 49.8252C155.245 49.8252 148.416 47.5501 143.338 43.0553L143.341 43.0584Z" fill="white"/>
<path id="Vector_33" d="M28.456 0.163574C12.891 0.163574 0.27417 12.7804 0.27417 28.3454C0.27417 34.8715 2.49686 40.8728 6.22295 45.6515C9.30693 38.6161 14.3605 29.2654 17.7871 24.5236L19.4387 22.2392L20.5716 24.82C21.8929 27.833 23.0228 30.954 23.9273 34.1121C26.187 29.5926 28.8512 25.246 31.858 21.1711L33.5713 18.8496L34.6518 21.5261C35.7045 24.1347 36.6398 26.8142 37.4332 29.5093C40.2332 23.9093 45.5738 15.7564 50.3063 10.5546C45.1416 4.21381 37.2727 0.163574 28.456 0.163574ZM37.9982 23.1684C37.6771 22.2979 37.3437 21.4335 37.001 20.5784L35.9206 17.9019L34.2258 13.7035L31.5369 17.3462L29.8236 19.6677C27.9096 22.2608 26.1284 24.9682 24.4953 27.7558C23.9952 26.4191 23.4611 25.1009 22.89 23.8013L21.7571 21.2205L19.9789 17.1733L17.3889 20.7574L15.7373 23.0418C12.8663 27.0118 9.93361 31.9635 7.38986 37.0942C6.24456 34.3405 5.64876 31.38 5.64876 28.3454C5.64876 15.7687 15.8793 5.53816 28.456 5.53816C34.837 5.53816 40.8043 8.15291 45.1138 12.7743C42.4929 16.0898 40.1128 19.5658 37.9982 23.1684Z" fill="#FF5B00"/>
<path id="Vector_34" d="M52.2943 13.3206C47.9446 18.337 42.6194 26.2152 39.9244 31.7534C39.4367 32.7537 38.4519 33.3649 37.3529 33.3649C37.2665 33.3649 37.1831 33.3618 37.0967 33.3525C35.902 33.2476 34.9172 32.4326 34.59 31.2811C34.0405 29.3486 33.4169 27.4192 32.7285 25.5145C30.3576 28.972 28.2399 32.6117 26.4154 36.3655C25.9307 37.3626 24.9491 37.9801 23.8562 37.9801C23.7605 37.9801 23.6679 37.977 23.5722 37.9677C22.3714 37.8566 21.3928 37.0323 21.0748 35.8685C20.4265 33.4915 19.6455 31.1299 18.7441 28.8207C15.6107 33.5501 11.1313 42.2032 8.69873 48.4298C13.7862 53.4339 20.7599 56.5272 28.4621 56.5272C44.0271 56.5272 56.644 43.9103 56.644 28.3453C56.644 22.8195 55.048 17.6702 52.3005 13.3206H52.2943ZM28.456 51.1526C22.6615 51.1526 17.0585 48.9176 12.8478 44.9692C14.3697 41.5148 16.1787 37.9646 18.0896 34.6738C18.2779 35.2943 18.457 35.9148 18.6267 36.5353C19.2256 38.724 21.0717 40.2768 23.3222 40.4868C23.4981 40.5053 23.6772 40.5115 23.8532 40.5115C25.9246 40.5115 27.7768 39.3476 28.6906 37.4738C29.697 35.4055 30.7991 33.368 31.9845 31.3737C32.0431 31.5744 32.0987 31.772 32.1574 31.9726C32.7748 34.1459 34.627 35.6771 36.8806 35.8747C37.0411 35.887 37.1986 35.8963 37.356 35.8963C39.4367 35.8963 41.2951 34.7325 42.2058 32.8617C44.3297 28.4966 46.8796 24.2858 49.8031 20.3035C50.7693 22.8627 51.2694 25.5886 51.2694 28.3453C51.2694 40.922 41.0389 51.1526 28.4621 51.1526H28.456Z" fill="#FF5B00"/>
</g>
<defs>
<clipPath id="clip0_505_7577">
<rect width="178.726" height="67.5759" fill="white" transform="translate(0.27417 0.163574)"/>
</clipPath>
</defs>
</svg>
